<svg xmlns="http://www.w3.org/2000/svg" height="90" viewBox="0 0 196 90" width="196"><g fill="none" fill-rule="evenodd"><path d="m0 0h196v90h-196z"></path><path d="m80.3 41.48 15.9 27.52c.24.45-.06 1.01-.59 1.01h-11.41c-.65 0-1.23-.34-1.58-.9l-13.38-23.21a1.78 1.78 0 0 1 0-1.8l3.51-6.06h.02l4.33-7.5h-.02l3.2-5.54c2.65-4.56 9.18-4.84 12.06-.45l.18.28 17.23 29.83a5.3 5.3 0 0 0 9.19 0l1.55-2.68a6.84 6.84 0 0 1 -5.62-3.45l-15.88-27.52c-.24-.45.06-1.01.58-1.01h11.39c.64 0 1.23.34 1.57.9l13.38 23.18c.32.54.32 1.25 0 1.8l-1.55 2.67-7.88 13.67-1.7 2.92c-2.63 4.56-9.2 4.76-11.98.28l-.16-.26-17.24-29.83a5.3 5.3 0 0 0 -9.17 0l-1.57 2.7a6.9 6.9 0 0 1 5.64 3.45z" fill="#0f3d3a"></path></g></svg>