<svg xmlns="http://www.w3.org/2000/svg" height="90" viewBox="0 0 196 90" width="196"><g fill="none" fill-rule="evenodd"><path d="m0 0h196v90h-196z"></path><path d="m122.98 40.56 3.36 3.36c.6.6.6 1.56 0 2.16l-3.36 3.36zm-3.05-3.04v14.96l-3.8 3.81v-22.58l3.8 3.8zm-6.85-6.86v28.68l-3.81 3.8v-36.28l3.8 3.81zm-6.86-6.85v42.38l-3.8 3.81v-50l3.8 3.8zm-10.66 42.38v-42.38l3.8-3.81v50l-3.8-3.8zm-6.85-6.85v-28.68l3.8-3.8v36.29zm-6.86-6.86v-14.96l3.81-3.81v22.58l-3.8-3.8zm-3.04-3.04-3.36-3.36c-.6-.6-.6-1.56 0-2.16l3.36-3.36z" fill="#0f3d3a"></path></g></svg>