<svg xmlns="http://www.w3.org/2000/svg" width="196" height="90" viewBox="0 0 196 90"><g fill="none" fill-rule="evenodd"><path d="M0 0h196v90H0z"></path><g fill="#0F3D3A"><path d="M35.03 51.7c1.63 2.31 4.34 3.64 7.25 4 1.85.24 3.77.08 5.56-.44A9.78 9.78 0 0 0 53 51.3c.46-.73.14-.67-.29-.2-1.36 1.5-3.63 2.28-5.48 2.56-1.45.21-2.8.15-4.66-.28a14.4 14.4 0 0 1-4.8-2.04 6.33 6.33 0 0 1-2.82-4.2c-.06-.97-.22-1-.48-.1a5.65 5.65 0 0 0 .56 4.67Zm23.5-8.02c3.7 3.65 9.24 8.82 14.03 12.86.44.37.39.46-.02.87-.3.3-.58.54-.86.83-.37.37-.4.46-.88-.1-3.4-4.08-8.78-9.36-13.17-13.57-.02-.02-.02-.05 0-.07.27-.29.54-.56.83-.82a.05.05 0 0 1 .07 0Zm16.09-21.2c-.37-.47-.78-.88-1.22-1.23-.6-.47-1.12-.8-1.84-1.01-.43-.13-.47-.24.06-.24.88.02 1.6.16 2.42.56.6.3 1.19.72 1.72 1.26 2.18 2.18 2.78 5.26 2.3 8.29-.82 5.25-4.61 9.5-9.86 9.89 1.75.18 3.15 0 4.5-.52 5.09-1.94 8.71-7.94 7.4-12.97a8.38 8.38 0 0 0-1.17-2.65c-.75-1.1-.7-1.36.54-.3.79.67 1.37 1.53 1.74 2.52 1.1 2.96.26 6.86-1.84 9.52a13.04 13.04 0 0 1-6.58 4.49c-1.44.4-3.01.51-4.48.22-.64-.12-.87-.2-1.34-.16.31.26.72.41 1.16.57 1.34.47 3.1.6 4.62.33A14.68 14.68 0 0 0 80.34 37c2.05-2.12 2.99-5.2 2.65-7.88-.1-.73-.04-.93.28-.04 1.09 3 .22 6.3-2.1 8.82a13.38 13.38 0 0 1-8.4 3.92 10.8 10.8 0 0 1-5.1-.85 3.52 3.52 0 0 0-1.6-.47c.72.82 2.12 1.43 3.21 1.82 2.66.94 5.41.8 8.42-.27a9.66 9.66 0 0 0 6.17-6.08c.14-.43.15-.48.12.05-.02.48-.1.94-.2 1.37-.7 2.75-2.94 4.73-5.6 5.76-3.8 1.47-7.94.79-11.1-1.19a9.75 9.75 0 0 1-1.96-1.7l-.01-.04.03-.03c1.08-.4 2.13-.38 3-.52 4.63-.72 8.04-5.59 8.41-9.9a10.5 10.5 0 0 0-1.94-7.27Zm3.35 28.16c-.8 1.01-3.64.4-6.28-.97a36.27 36.27 0 0 1-10.25-8.13c0-.02.02-.03.03-.04.26-.14.54-.27.79-.37l.05.01c2 2.24 6.07 5.8 10.03 7.22 2.06.73 4.37.94 6.06.43.96-.3 1.33-.66.49.58a30 30 0 0 1-.92 1.27Zm3.73-6.58c-2.05 3.13-5.81 3.43-9.2 2.46a19.65 19.65 0 0 1-9.02-5.77c-.01-.01-.02-.03-.01-.05a8 8 0 0 1 .65-.15c2.57 2.35 4.77 4.12 8.45 4.85 2.94.58 6.32.35 8.74-1.68.96-.8 1.6-1.52.39.33Zm-21.35-1.84c4.94 5.45 10.64 9.16 15.2 10.64.8.27.85.08.26.87-.24.32-.5.65-.8.95-.46.45-.37.38-.9.13-4.43-2.05-11-7.82-14.56-12a.05.05 0 0 1 0-.03l.01-.04c.24-.19.5-.36.72-.52a.05.05 0 0 1 .07 0Zm5.36-21.2a8.6 8.6 0 0 1 1.97 1.94c1.43 1.94 2.05 4.44 2.13 6.97.12 3.82-1.36 7.1-4.73 9.2-.73.45-.66.13-.2-.3 2.33-2.1 3.04-5.42 2.82-8.53a13.92 13.92 0 0 0-2.36-6.54 6.33 6.33 0 0 0-4.2-2.82c-.97-.05-1-.22-.1-.47a5.64 5.64 0 0 1 4.67.56Zm.1 18.26c2-.4 4.05-2.63 5.25-4.7a13.38 13.38 0 0 0 1.44-7.44c-.3-2.82-2.17-6.15-4.83-6.84-.63-.16-.72-.3.1-.3 3.8.03 6.27 3.61 6.59 6.82.3 3.02-.76 6.38-2.47 8.7-1.44 1.97-3.62 3.86-6.05 3.96-.4.02-.59-.09-.03-.2Zm-3.31.45c.96-2.22.19-6.08-1.37-9.34-1.16-2.42-4.08-7.25-7.34-6.98-.57.05-.25-.15.02-.32 1.15-.73 2.94-1.27 4.13-.85 2.68.89 4.77 3.52 6 6.49.94 2.24 2.54 8.3-.4 10.76h-.01c-.33.1-.66.18-.97.3-.02.02-.04.01-.05 0a.05.05 0 0 1-.01-.06Zm-2.98 1.68c-.63-3.16-6.47-11.64-11.28-13.9-.3-.11-.42-.25-.15-.56.53-.6 1.65-1.52 2.42-1.38 4.34 1.06 11.35 11.65 10.33 15.05 0 0-.01.02-.03.02a17.38 17.38 0 0 0-1.26.8.05.05 0 0 1-.03-.03ZM49.34 60.54a13.2 13.2 0 0 1-8.33 1.83c-3.38-.44-5.85-2.26-6.7-4.69-.17-.46-.23-.9-.28.03-.14 2.47 2.36 5.92 6.85 6.59 3.06.45 6.59-.86 9-2.69a9.63 9.63 0 0 0 4.13-7.42c.17 1.75 0 3.16-.52 4.5-1.71 4.47-6.19 7.17-10.03 7.64a8.5 8.5 0 0 1-6.14-1.77c-.58-.42-.67-.48-.27.18 1.32 2.18 3.93 3.12 6.64 2.92 2.08-.16 4.22-.96 5.91-2.3a13.04 13.04 0 0 0 4.5-6.57c.4-1.45.5-2.95.2-4.42-.12-.64-.22-.85-.16-1.37a8.28 8.28 0 0 1 .92 5.74 14.67 14.67 0 0 1-4.06 7.6 9.45 9.45 0 0 1-8.28 2.57c-.55-.1-.63-.07-.08.19 2.5 1.15 6.27.81 9.26-1.93a13.38 13.38 0 0 0 3.91-8.4c.13-1.73-.13-3.43-.82-4.97-.55-1.13-.66-1.28-.5-1.79.23.13.66.8 1.02 1.48.96 1.76 1.5 3.5 1.43 5.28-.2 4.55-1.89 9.1-6.54 10.9-.61.24-.9.33-.7.33.1 0 .34-.03.75-.08 5.18-.62 8.01-6.5 7.42-11.26a13.1 13.1 0 0 0-1.91-5.57 10.33 10.33 0 0 0-1.76-1.91.05.05 0 0 0-.04.03c-.14.64-.18.92-.3 1.65-.08.46-.14.74-.2 1.46-.22 2.25-2.28 5.4-4.32 6.22Zm15.3 3.43c1.02-.8.31-3.18-1.06-5.83-2.07-4-5.23-8.4-8.01-10.76a.06.06 0 0 0-.04 0 .05.05 0 0 0-.04.02l-.37.74.01.06c2.24 2 5.73 6.63 7.14 10.6.78 2.2 1.07 4.36.39 5.96-.29.68-.8 1.06.26.4.7-.42 1.52-1.04 1.72-1.2Zm-6.52 3.7c3.17-1.93 3.05-5.54 2.36-8.44-.44-1.84-1.73-6.4-5.78-9.9a.05.05 0 0 0-.05-.01.05.05 0 0 0-.03.03l-.16.6a16.44 16.44 0 0 1 4.92 9.52c.41 2.73.26 5.6-1.5 7.65-.63.73-1.6 1.67.24.54Zm-1.96-21.3c4.75 4.38 9.3 10.09 10.94 14.62.33.89.34 1 1.14.36.24-.19.48-.4.71-.61.7-.66.62-.55.18-1.3-2.26-3.8-8.66-10.87-12.38-13.84a.05.05 0 0 0-.04-.01c-.01 0-.02 0-.03.02l-.52.7a.05.05 0 0 0 0 .06ZM53.14 52c-.4 2-2.48 3.85-4.55 5.06a13.38 13.38 0 0 1-7.44 1.44c-2.9-.32-6.28-2.25-6.95-5-.1-.44-.08-.8-.17-.04-.42 3.9 3.5 6.56 6.8 6.9 3.02.3 6.38-.77 8.7-2.48 1.97-1.44 3.7-3.42 3.8-5.85.02-.4-.08-.6-.2-.03Zm.5-3.48c-2.21.96-5.99.16-9.24-1.4-2.42-1.16-7.25-4.08-6.98-7.34.05-.56-.18-.26-.32.03-2.3 4.83 1.65 8.52 5.64 10.13 3.84 1.55 8.37 1.77 10.25.05.16-.15.29-.24.4-.42v-.01c.1-.34.2-.65.33-.98 0-.02 0-.03-.02-.05-.01-.02-.03-.02-.05-.01Zm1.72-2.98c-3.19-.67-13.26-8.75-13.85-11.3-.06-.33-.15-.48-.48-.15-.6.6-1.56 1.8-1.45 2.41.5 3.37 12.05 11.5 14.98 10.36l.03-.03a18.3 18.3 0 0 1 .8-1.26.05.05 0 0 0-.03-.03ZM45.25 29.38c-.4.35-1.33 1.27-1.68 1.66a.25.25 0 0 0-.03.3c2.45 3.56 9.13 9.62 13.26 12.5.02.02.05.02.07 0 .25-.27.67-.68.96-.95a.05.05 0 0 0 0-.06c-1.59-2.9-8.17-10.26-12.27-13.45a.25.25 0 0 0-.31 0Z"></path><g fill-rule="nonzero"><path d="M102.93 54.31c-1.8 0-3.36-.4-4.67-1.18a7.84 7.84 0 0 1-3.01-3.3 10.88 10.88 0 0 1-1.05-4.9c0-1.88.35-3.52 1.05-4.93a7.92 7.92 0 0 1 3.02-3.32 8.8 8.8 0 0 1 4.66-1.2c2.17 0 3.94.54 5.3 1.6a7.14 7.14 0 0 1 2.6 4.52h-3.43a4.21 4.21 0 0 0-1.48-2.42 4.73 4.73 0 0 0-3.01-.88c-1.15 0-2.13.26-2.95.79a5.08 5.08 0 0 0-1.9 2.29 8.7 8.7 0 0 0-.67 3.55c0 1.37.22 2.54.67 3.52a5.1 5.1 0 0 0 1.9 2.26c.82.53 1.8.8 2.95.8a5 5 0 0 0 3.01-.82 3.88 3.88 0 0 0 1.48-2.28h3.44a6.81 6.81 0 0 1-2.6 4.33 8.54 8.54 0 0 1-5.3 1.57ZM118.58 54.31a6.56 6.56 0 0 1-3.36-.87 6.16 6.16 0 0 1-2.34-2.42 7.28 7.28 0 0 1-.85-3.55c0-1.37.29-2.57.86-3.6a6.25 6.25 0 0 1 2.35-2.41c1-.59 2.12-.88 3.37-.88s2.37.3 3.37.88c1 .58 1.77 1.38 2.34 2.4.56 1.02.84 2.22.84 3.59 0 1.37-.28 2.56-.86 3.59a6.27 6.27 0 0 1-2.35 2.4c-1 .58-2.12.87-3.37.87Zm0-2.68c.63 0 1.2-.15 1.7-.46.52-.32.93-.78 1.24-1.4.31-.63.47-1.4.47-2.32 0-.92-.15-1.69-.45-2.3a3.27 3.27 0 0 0-1.23-1.4 3.2 3.2 0 0 0-1.7-.46 3.23 3.23 0 0 0-2.94 1.86 5.06 5.06 0 0 0-.47 2.3c0 .92.16 1.69.47 2.31a3.16 3.16 0 0 0 2.91 1.87ZM127.03 54V40.9h3.12V54h-3.12Zm1.56-15.18c-.57 0-1.04-.18-1.41-.54-.38-.35-.56-.79-.56-1.31 0-.54.18-.98.56-1.31.37-.34.84-.51 1.41-.51.58 0 1.05.17 1.42.5.37.34.56.78.56 1.32 0 .52-.19.96-.56 1.31-.37.36-.84.54-1.42.54ZM132.47 54V40.9h2.75l.24 2.18c.4-.76.97-1.37 1.71-1.82a5.03 5.03 0 0 1 2.66-.68c1.05 0 1.95.23 2.7.67a4.39 4.39 0 0 1 1.73 1.93c.4.85.61 1.91.61 3.18V54h-3.12v-7.36c0-1.09-.24-1.93-.73-2.52-.48-.59-1.2-.88-2.16-.88a3.07 3.07 0 0 0-2.85 1.73 4.47 4.47 0 0 0-.42 2.04V54h-3.12ZM150.65 35.8l-2.58 6.47h-2.16l1.4-6.47zM155.79 54.31a7.56 7.56 0 0 1-3.03-.56 4.55 4.55 0 0 1-2.9-3.86h3.12c.09.37.24.7.47 1 .23.3.53.54.92.72.4.17.86.26 1.4.26.51 0 .94-.08 1.27-.22.33-.15.57-.35.73-.59.15-.24.23-.5.23-.78 0-.41-.11-.73-.34-.96-.22-.23-.55-.4-.97-.53-.43-.13-.93-.26-1.52-.38-.63-.12-1.23-.27-1.81-.45a7.13 7.13 0 0 1-1.56-.7 3.22 3.22 0 0 1-1.1-1.06 3.6 3.6 0 0 1 .2-3.64c.42-.6 1.01-1.09 1.78-1.44.77-.36 1.7-.54 2.77-.54 1.53 0 2.75.36 3.66 1.06a4.2 4.2 0 0 1 1.6 2.95h-2.97a1.66 1.66 0 0 0-.73-1.13 2.8 2.8 0 0 0-1.58-.4c-.68 0-1.2.12-1.55.37-.36.25-.53.59-.53 1 0 .28.1.52.32.73.22.2.53.39.95.53.42.15.93.3 1.53.43.97.2 1.83.42 2.58.68.74.26 1.33.64 1.77 1.14.43.5.65 1.22.65 2.13.01.84-.2 1.57-.64 2.21a4.34 4.34 0 0 1-1.86 1.5 7 7 0 0 1-2.86.53Z"></path></g></g></g></svg>