<svg xmlns="http://www.w3.org/2000/svg" height="90" viewBox="0 0 196 90" width="196"><g fill="none" fill-rule="evenodd"><path d="m0 0h196v90h-196z"></path><g fill="#0f3d3a"><path d="m92.56 54.97v-20.03h12.07v3.35h-8.72v4.99h7.05v3.35h-7.05v8.34zm11.17 0 6.32-20.03h4.92l6.33 20.03h-3.47l-5.72-17.97h.74l-5.66 17.97zm3.53-4.34v-3.13h10.53v3.13zm14.8 4.34v-20.03h7.95c1.36 0 2.47.27 3.34.82a5.13 5.13 0 0 1 1.95 2.08c.41.84.62 1.7.62 2.61.03 1-.24 1.98-.78 2.81-.51.75-1.27 1.3-2.14 1.55v-.69c1.14.22 2.17.86 2.87 1.8.66.9 1 1.98 1 3.1a6.78 6.78 0 0 1 -.7 3.12 4.89 4.89 0 0 1 -2.02 2.09c-.9.5-2 .74-3.33.74zm3.4-3.16h4.94c.6 0 1.12-.11 1.57-.35a2.68 2.68 0 0 0 1.5-2.54c0-.54-.12-1.02-.35-1.45a2.6 2.6 0 0 0 -1.02-1.02 3.2 3.2 0 0 0 -1.6-.37h-5.04v5.74zm0-8.87h4.5c.49 0 .92-.09 1.3-.28.39-.17.7-.45.92-.82.22-.35.33-.8.33-1.34 0-.7-.23-1.27-.67-1.73a2.5 2.5 0 0 0 -1.87-.7h-4.51zm12.44 12.03v-20.03h8.29a12.92 12.92 0 0 1 1.6.1c1.16.19 2.12.58 2.88 1.17a5.37 5.37 0 0 1 1.68 2.24c.36.9.55 1.92.55 3.01a7.12 7.12 0 0 1 -1.24 4.22 5.5 5.5 0 0 1 -3.8 2.17l-1.43.13h-5.18v7h-3.35zm11.52 0-3.96-8.15 3.42-.75 4.35 8.9zm-8.17-10.13h4.8a5.44 5.44 0 0 0 1.27-.14c.5-.1.95-.36 1.3-.73.33-.35.55-.75.7-1.2.25-.85.25-1.77 0-2.62a3.08 3.08 0 0 0 -.69-1.2 2.6 2.6 0 0 0 -1.3-.73c-.21-.06-.42-.09-.66-.12l-.62-.02h-4.8zm13.58 10.13v-20.03h3.35v20.03zm5.79 0v-20.03h3.35v9.3l8-9.3h4.14l-8.63 9.83 9.22 10.2h-4.27l-8.46-9.34v9.34z" fill-rule="nonzero"></path><path d="m66.8 46.09a11.96 11.96 0 1 1 0 23.91h-34.84a11.96 11.96 0 1 1 0-23.91h34.82zm0 6.52h-34.84a5.44 5.44 0 1 0 0 10.87h34.82a5.44 5.44 0 1 0 0-10.87zm1.07-32.61a10.88 10.88 0 1 1 0 21.74h-37a10.88 10.88 0 1 1 0-21.74zm0 6.52h-37a4.35 4.35 0 1 0 0 8.7h37a4.35 4.35 0 1 0 0-8.7z"></path></g></g></svg>