<svg xmlns="http://www.w3.org/2000/svg" height="76" viewBox="0 0 76 76" width="76"><g fill="none" fill-rule="evenodd"><path d="m0 0h76v76h-76z"></path><g fill-rule="nonzero"><path d="m35.97 33.05-2.12 2.12-1.06-1.05-21.16-21.06-1.07-1.05 2.12-2.13 1.06 1.06 21.16 21.05zm29.86 30.3-2.12 2.13-1.06-1.06-21.15-21.05-1.07-1.06 2.12-2.13 1.06 1.06 21.16 21.05z" fill="#1f6e69"></path><path d="m66 12.16-1.06 1.07-21.06 21.16-1.05 1.06-2.13-2.12 1.06-1.06 21.05-21.16 1.06-1.06z" fill="#c8f8a9"></path><path d="m35.7 42.02-1.07 1.07-21.05 21.16-1.06 1.06-2.12-2.12 1.05-1.06 21.05-21.16 1.06-1.06z" fill="#1f6e69"></path></g></g></svg>