<svg xmlns="http://www.w3.org/2000/svg" height="76" viewBox="0 0 68 76" width="68"><g fill="none"><path d="m29.35 39.15 1.51 2.59-1.3.76-25.81 14.99-1.29.75-1.51-2.59 1.3-.76 25.81-14.99z" fill="#1f6e69"></path><path d="m66.35 18.15 1.51 2.59-1.3.76-25.81 14.99-1.29.75-1.51-2.59 1.3-.76 25.81-14.99z" fill="#c8f8a9"></path><path d="m2.56 17.95 1.3.74 25.89 14.86 1.3.75-1.49 2.6-1.3-.75-25.89-14.85-1.3-.75zm36.69 21.54 1.3.75 25.89 14.86 1.3.74-1.49 2.6-1.3-.74-25.89-14.86-1.3-.75zm-3.23-38.99v1.5l.08 29.84v1.5l-3 .01v-1.5l-.08-29.85v-1.5zm-.31 42.54v1.5l.08 29.85v1.5l-3 .01v-1.5l-.08-29.85v-1.5z" fill="#1f6e69"></path></g></svg>