<svg xmlns="http://www.w3.org/2000/svg" height="90" viewBox="0 0 196 90" width="196"><g fill="none" fill-rule="evenodd"><path d="m0 0h196v90h-196z"></path><g fill="#0f3d3a" fill-rule="nonzero"><path d="m78.95 52.74c-1.2 0-2.26-.2-3.22-.63a5.83 5.83 0 0 1 -3.52-4.54l2.83-.43c.23.97.73 1.73 1.47 2.25 1.26.82 2.82 1.01 4.23.52.53-.18.94-.44 1.26-.8.32-.34.47-.77.47-1.26.02-.43-.14-.84-.43-1.15-.17-.17-.36-.3-.57-.42-.23-.12-.5-.23-.8-.32l-4.2-1.25c-.37-.1-.75-.25-1.18-.43a4.8 4.8 0 0 1 -1.18-.73 3.66 3.66 0 0 1 -1.28-3c0-1.06.28-1.95.8-2.65a4.87 4.87 0 0 1 2.15-1.61 7.96 7.96 0 0 1 3.02-.53c1.1.01 2.1.21 2.97.59a5.73 5.73 0 0 1 3.43 4.2l-2.93.5a3.18 3.18 0 0 0 -1.94-2.4 4.17 4.17 0 0 0 -3.1-.08c-.42.14-.8.4-1.11.73-.28.31-.43.68-.43 1.1 0 .4.13.73.38.99.23.25.53.45.88.6.38.14.73.27 1.1.37l2.92.8c.4.13.84.25 1.34.44.5.18.97.43 1.43.76s.84.75 1.13 1.28c.3.53.46 1.2.46 2.02a4.57 4.57 0 0 1 -1.94 3.81c-.6.43-1.28.75-2.05.96a8.9 8.9 0 0 1 -2.4.31zm10.02-.34-3.73-12.26 2.66.03 2.39 7.83 2.4-7.84h2.31l2.41 7.84 2.38-7.84h2.68l-3.73 12.24h-2.14l-2.76-8.42-2.76 8.42h-2.12zm14.34-14.1v-2.48h2.72v2.48zm0 14.1v-12.23h2.72v12.23zm5.76 0v-12.42l.04-1.04c.01-.37.08-.74.19-1.1.11-.38.3-.72.58-1.01.34-.4.71-.66 1.13-.8.4-.16.79-.23 1.18-.26l1.04-.02h1.52v2.21h-1.4c-.54 0-.92.13-1.18.4-.25.26-.37.6-.37 1.01v13.03zm-1.97-10.1v-2.13h7.66v2.14h-7.66z"></path><path d="m122.3 52.4c-.8.16-1.6.23-2.36.2-.72 0-1.42-.15-2.08-.42-.59-.26-1.08-.7-1.38-1.27a3.68 3.68 0 0 1 -.45-1.64c-.03-.54-.03-1.17-.03-1.86v-10.64h2.72v10.48c0 .48 0 .91.02 1.29a1.58 1.58 0 0 0 1.53 1.66c.6.05 1.26.03 2.03-.07zm-8.5-10.1v-2.13h8.5v2.14h-8.5zm13.05 10.1v-16.3h2.73v13.76h7.18v2.55h-9.9zm10.65-14.1v-2.48h2.72v2.48zm0 14.1v-12.23h2.72v12.23zm13.14 0v-5.89c0-.38-.03-.8-.08-1.27a4.76 4.76 0 0 0 -.37-1.36 2.6 2.6 0 0 0 -.86-1.07 2.53 2.53 0 0 0 -1.54-.42c-.34 0-.68.05-1.02.17s-.65.3-.92.58c-.27.27-.5.65-.66 1.13-.16.5-.25 1.1-.25 1.84l-1.62-.7c0-1.03.2-1.97.61-2.81a4.77 4.77 0 0 1 4.67-2.79c.9 0 1.64.14 2.23.44s1.07.68 1.4 1.16c.36.47.6.97.77 1.5.29.85.42 1.75.4 2.64v6.85zm-8.46 0v-12.23h2.43v3.79h.33v8.44zm18.1.34a6.4 6.4 0 0 1 -3.25-.8 5.7 5.7 0 0 1 -2.18-2.23 6.7 6.7 0 0 1 -.8-3.29c0-1.34.26-2.5.78-3.48 1-2 3.07-3.23 5.3-3.13 1.25 0 2.33.3 3.2.88.91.62 1.6 1.5 1.99 2.52.43 1.09.59 2.36.49 3.83h-2.71v-1c0-1.33-.24-2.31-.7-2.92-.46-.63-1.19-.91-2.17-.91-1.11 0-1.94.34-2.48 1.03-.6.89-.9 1.96-.82 3.03 0 1.25.28 2.2.82 2.89.54.68 1.33 1 2.37 1a3.2 3.2 0 0 0 1.73-.44 3 3 0 0 0 1.13-1.3l2.7.82a5.45 5.45 0 0 1 -2.18 2.57c-.97.62-2.05.92-3.23.92zm-4.2-5.69v-2.07h8.41v2.06h-8.41zm-103.28-27.05h24.25l-16.13 16.13a19.92 19.92 0 0 1 -14.01 5.82l-15.91.05zm0 50h24.25l-16.13-16.13a19.92 19.92 0 0 0 -14.01-5.82l-15.91-.05z"></path></g></g></svg>