<svg xmlns="http://www.w3.org/2000/svg" height="90" viewBox="0 0 196 90" width="196"><g fill="none" fill-rule="evenodd"><path d="m0 0h196v90h-196z"></path><g fill="#0f3d3a" fill-rule="nonzero"><path d="m52.7 42.36a.5.5 0 0 1 -.58.03c-.31-.2-.63-.38-.95-.57a32.73 32.73 0 0 0 -5.72-2.6c-.26-.1-.3-.46-.05-.6a21.5 21.5 0 0 0 11-18.14.5.5 0 0 1 .5-.48h6.24c.26 0 .48.22.5.48a21.5 21.5 0 0 0 10.96 18.14c.25.15.22.52-.05.6-1.98.69-3.9 1.55-5.72 2.6-.31.19-.63.39-.95.57a.5.5 0 0 1 -.58-.03 28.66 28.66 0 0 1 -7.14-8.36l-.15-.25-.15.25a28.45 28.45 0 0 1 -7.15 8.36z"></path><path d="m63.13 70h-6.24a.51.51 0 0 1 -.5-.48 21.62 21.62 0 0 0 -20.89-20.92.5.5 0 0 1 -.49-.5v-6.22c0-.28.23-.5.5-.5a28.92 28.92 0 0 1 24.36 14.57l.15.25.15-.25a28.88 28.88 0 0 1 24.35-14.55c.28 0 .5.22.5.5v6.22c0 .27-.22.48-.49.5a21.62 21.62 0 0 0 -20.9 20.9.5.5 0 0 1 -.5.49zm38.53-17-4.09-15.4h2.82l2.88 12.39 3.34-12.39h2.93l3.23 12.41 2.91-12.41h2.83l-4.2 15.4h-3.12l-3.17-11.66-3.26 11.66zm20.24.26c-.9 0-1.66-.15-2.26-.46a3.14 3.14 0 0 1 -1.78-2.9c0-.7.18-1.31.54-1.83.35-.51.89-.91 1.59-1.2.7-.28 1.57-.43 2.6-.43h2.79c0-.58-.08-1.07-.24-1.46a1.72 1.72 0 0 0 -.75-.87c-.34-.19-.77-.28-1.3-.28-.6 0-1.11.13-1.54.4-.42.27-.69.69-.79 1.25h-2.6a3.95 3.95 0 0 1 2.55-3.36 5.93 5.93 0 0 1 2.38-.47 6 6 0 0 1 2.66.54c.74.36 1.3.87 1.69 1.54.39.66.58 1.47.58 2.4v6.87h-2.24l-.27-1.78a3.58 3.58 0 0 1 -1.34 1.46c-.3.18-.63.33-1 .43-.38.1-.8.15-1.27.15zm.6-2.09a2.5 2.5 0 0 0 2-.9c.23-.27.42-.6.55-.94.13-.36.22-.73.26-1.13v-.04h-2.44c-.51 0-.94.07-1.27.2-.34.13-.58.31-.73.54-.15.22-.22.5-.22.8s.07.57.22.8c.15.21.36.38.64.5s.6.17.99.17zm9.92 1.83-4.09-11.09h2.77l2.92 8.58 2.93-8.58h2.73l-4.08 11.09zm12.72.26c-1.1 0-2.07-.23-2.9-.71a5.02 5.02 0 0 1 -1.97-2.01 6.18 6.18 0 0 1 -.7-3c0-1.17.23-2.2.7-3.08a5.12 5.12 0 0 1 1.95-2.06c.84-.5 1.82-.75 2.94-.75 1.08 0 2.03.24 2.84.72.8.49 1.43 1.14 1.87 1.95.44.82.66 1.73.66 2.74v.48c0 .18-.02.36-.05.55h-9.02v-1.69h6.4a2.56 2.56 0 0 0 -2.72-2.6c-.55 0-1.05.13-1.5.38s-.81.62-1.08 1.1a3.9 3.9 0 0 0 -.4 1.87v.64c0 .69.13 1.28.4 1.78.25.5.6.87 1.05 1.13.44.26.95.39 1.5.39.62 0 1.13-.14 1.53-.4s.7-.62.9-1.06h2.68a5.06 5.06 0 0 1 -5.08 3.63zm11.15 0a6.4 6.4 0 0 1 -2.56-.47 3.85 3.85 0 0 1 -2.45-3.27h2.63c.08.31.2.6.4.85.2.26.45.46.78.6.33.15.72.23 1.18.23.44 0 .8-.07 1.08-.2.27-.12.48-.28.61-.49.13-.2.2-.42.2-.66 0-.35-.1-.62-.29-.81-.19-.2-.46-.34-.82-.45s-.79-.22-1.29-.32c-.53-.1-1.04-.23-1.53-.38-.49-.16-.93-.35-1.32-.59a2.5 2.5 0 0 1 -1.27-2.24c0-.65.18-1.23.53-1.74.34-.51.84-.92 1.5-1.22.64-.3 1.42-.45 2.33-.45 1.3 0 2.32.3 3.1.89.77.6 1.22 1.43 1.35 2.5h-2.51a1.4 1.4 0 0 0 -.62-.96 2.36 2.36 0 0 0 -1.34-.34c-.57 0-1 .1-1.3.32-.3.21-.46.5-.46.84 0 .24.1.44.28.62s.45.33.8.45c.35.13.78.25 1.3.36.82.17 1.55.36 2.18.58a3.4 3.4 0 0 1 1.5.96c.36.43.54 1.03.54 1.8a3.1 3.1 0 0 1 -.54 1.88c-.37.54-.9.96-1.57 1.26s-1.48.45-2.42.45z"></path></g></g></svg>